<svg xmlns="http://www.w3.org/2000/svg" width="147" height="28" fill="none"><mask id="a" width="27" height="27" x="0" y="0" maskUnits="userSpaceOnUse" style="mask-type:luminance"><path fill="#fff" d="M26.246 0H0v26.246h26.246V0Z"/></mask><g fill="#D43228" mask="url(#a)"><path d="M11.202 25.78a11.534 11.534 0 0 1-.551-2.063l-2.096-.545v-2.856l2.096-.546c.12-.703.304-1.394.551-2.063l-1.54-1.518 1.426-2.472 2.09.579c.456-.548.961-1.053 1.509-1.51l-.58-2.089 2.476-1.428c.507.512 1.014 1.025 1.52 1.54.67-.248 1.36-.433 2.064-.552l.543-2.096h2.855l.546 2.096c.703.12 1.394.304 2.064.552l.07-.073v-9.01A1.739 1.739 0 0 0 24.52 0H12.076l.26.45-1.096 1.08c.175.477.307.968.393 1.468l1.49.388v2.028l-1.49.39c-.086.5-.217.991-.393 1.468l1.096 1.079-1.013 1.758-1.488-.406c-.324.39-.683.75-1.073 1.074.138.495.275.99.41 1.486l-1.758 1.013c-.36-.367-.72-.732-1.08-1.096a8.28 8.28 0 0 1-1.468.39l-.386 1.49H2.452l-.388-1.49a8.292 8.292 0 0 1-1.47-.393L0 12.78v11.74a1.738 1.738 0 0 0 1.726 1.726h9.004l.472-.467Z"/><path d="M26.246 24.52V14.296a8.502 8.502 0 0 0-11.321 11.949h9.594a1.738 1.738 0 0 0 1.727-1.727ZM0 1.726v7.63A6.045 6.045 0 0 0 7.61 0H1.725A1.738 1.738 0 0 0 0 1.726Z"/></g><path fill="#fff" d="m39.126 7.34-.95 8.287h-3.142l2.193-15.5 6.18 9.532 6.18-9.532 2.193 15.5h-3.142l-.95-8.288-4.281 6.918-4.281-6.918ZM56.088 15.627v-2.552h7.445v2.552h-7.445Zm0-12.21V.864h7.445v2.551h-7.445Zm0 5.63v-2.51h7.023v2.51h-7.023ZM54.148.865h2.91v14.762h-2.91V.865ZM68.931 8.246c0 .97.218 1.82.654 2.552a4.732 4.732 0 0 0 1.75 1.666c.718.38 1.498.57 2.342.57.703 0 1.328-.092 1.877-.275a5.585 5.585 0 0 0 1.476-.738 6.31 6.31 0 0 0 1.16-1.012v3.395a7.272 7.272 0 0 1-1.982 1.118c-.703.267-1.596.4-2.679.4-1.125 0-2.172-.182-3.143-.548a7.39 7.39 0 0 1-2.51-1.581 7.41 7.41 0 0 1-1.645-2.426c-.38-.942-.57-1.982-.57-3.12 0-1.14.19-2.173.57-3.101A7.355 7.355 0 0 1 67.876 2.7a7.391 7.391 0 0 1 2.51-1.582c.97-.366 2.018-.549 3.143-.549 1.083 0 1.976.134 2.679.401.717.267 1.378.64 1.982 1.118v3.395a6.31 6.31 0 0 0-1.16-1.012 5.583 5.583 0 0 0-1.476-.738c-.549-.183-1.174-.274-1.877-.274-.844 0-1.624.197-2.342.59-.717.38-1.3.928-1.75 1.645-.436.717-.654 1.568-.654 2.552ZM82.183 9.132v-2.72h10.84v2.72h-10.84ZM91.104.865h3.017v14.762h-3.017V.865Zm-9.913 0h3.016v14.762h-3.016V.865ZM99.344 12.274l.359-2.383h7.086l.359 2.383h-7.804Zm3.86-6.622-2.215 5.083.064.674-1.94 4.218h-3.397L103.204 0l7.488 15.627h-3.417l-1.898-4.091.041-.76-2.214-5.124ZM122.797.865h2.911v15.5l-10.504-9.89v9.152h-2.911V.127l10.504 9.89V.866ZM128.915.865h3.058v14.762h-3.058V.865ZM137.581 8.246c0 .97.219 1.82.654 2.552a4.739 4.739 0 0 0 1.75 1.666c.718.38 1.498.57 2.342.57.703 0 1.329-.092 1.877-.275a5.596 5.596 0 0 0 1.477-.738 6.33 6.33 0 0 0 1.16-1.012v3.395a7.28 7.28 0 0 1-1.983 1.118c-.703.267-1.596.4-2.679.4a8.845 8.845 0 0 1-3.143-.548 7.387 7.387 0 0 1-2.509-1.581 7.4 7.4 0 0 1-1.645-2.426c-.38-.942-.57-1.982-.57-3.12 0-1.14.19-2.173.57-3.101a7.344 7.344 0 0 1 1.645-2.446 7.387 7.387 0 0 1 2.509-1.582 8.846 8.846 0 0 1 3.143-.549c1.083 0 1.976.134 2.679.401a7.28 7.28 0 0 1 1.983 1.118v3.395a6.328 6.328 0 0 0-1.16-1.012 5.595 5.595 0 0 0-1.477-.738c-.548-.183-1.174-.274-1.877-.274a4.79 4.79 0 0 0-2.342.59c-.716.38-1.3.928-1.75 1.645-.435.717-.654 1.568-.654 2.552ZM35.034 22.2h.834v4.135h-.834V22.2Zm.507.715V22.2h.81c.324 0 .598.053.823.16.23.106.405.257.525.454s.181.431.181.703c0 .268-.06.502-.18.703-.121.197-.296.349-.526.455-.225.106-.5.16-.822.16h-.81v-.715h.81c.222 0 .397-.051.525-.154.128-.102.192-.252.192-.449 0-.2-.064-.35-.192-.449-.128-.102-.303-.153-.525-.153h-.81ZM46.207 26.335v-.715h2.06v.715h-2.06Zm0-3.42V22.2h2.06v.715h-2.06Zm0 1.577v-.703h1.943v.703h-1.943Zm-.536-2.292h.805v4.135h-.805V22.2ZM57.132 24.013l-.263 2.322H56l.607-4.342 1.709 2.67 1.709-2.67.606 4.342h-.869l-.262-2.322-1.184 1.938-1.184-1.938ZM68.902 24.267c0 .264.054.499.163.703.109.205.259.367.45.485.19.118.411.177.664.177.253 0 .474-.06.665-.177.19-.118.338-.28.443-.485.11-.204.164-.439.164-.703a1.52 1.52 0 0 0-.158-.703 1.205 1.205 0 0 0-.443-.484 1.246 1.246 0 0 0-.67-.177c-.254 0-.475.059-.666.177-.19.118-.34.28-.449.484-.109.205-.163.44-.163.703Zm-.881 0c0-.315.054-.602.163-.862.11-.264.26-.492.455-.685.195-.193.422-.341.683-.443.264-.107.55-.16.857-.16.311 0 .597.053.858.16.26.102.487.25.682.443.198.193.35.421.455.685.109.26.163.547.163.862 0 .311-.054.601-.163.869a2.055 2.055 0 0 1-1.132 1.152c-.26.106-.548.16-.863.16a2.31 2.31 0 0 1-.869-.16 2.098 2.098 0 0 1-.682-.461 2.053 2.053 0 0 1-.45-.691 2.358 2.358 0 0 1-.157-.869ZM80.401 24.516v-.762h2.998v.762h-2.998Zm2.468-2.316h.834v4.135h-.834V22.2Zm-2.742 0h.834v4.135h-.834V22.2ZM91.318 22.962V22.2h3.034v.762h-1.103v3.373h-.834v-3.373h-1.097ZM111.43 25.396l.099-.668h1.96l.099.668h-2.158Zm1.067-1.855-.612 1.424.018.189-.537 1.181h-.939l2.07-4.377 2.071 4.377h-.945l-.525-1.146.012-.213-.613-1.435ZM122.78 24.238v-.384h.659c.121 0 .226-.02.315-.06a.445.445 0 0 0 .205-.17.468.468 0 0 0 .075-.266.424.424 0 0 0-.163-.36c-.105-.083-.249-.125-.432-.125h-.449v2.789h.537c.14 0 .266-.02.379-.06a.55.55 0 0 0 .263-.2.577.577 0 0 0 .099-.349.521.521 0 0 0-.059-.26.444.444 0 0 0-.157-.183.58.58 0 0 0-.233-.106 1.151 1.151 0 0 0-.292-.036h-.747v-.46h.823c.198 0 .387.021.566.065.183.043.346.112.489.206.144.09.257.209.339.355.086.145.128.32.128.526 0 .271-.064.494-.193.667a1.082 1.082 0 0 1-.53.384 2.352 2.352 0 0 1-.799.124h-1.447V22.2h1.359c.273 0 .512.04.718.118.206.075.367.189.484.343a.944.944 0 0 1 .175.584.852.852 0 0 1-.175.538 1.09 1.09 0 0 1-.484.343 2.099 2.099 0 0 1-.718.112h-.735ZM132.396 22.962V22.2h3.033v.762h-1.102v3.373h-.834v-3.373h-1.097ZM143.405 24.267c0 .264.054.499.164.703.108.205.258.367.449.485.19.118.412.177.664.177.254 0 .475-.06.666-.177a1.2 1.2 0 0 0 .442-.485c.11-.204.164-.439.164-.703 0-.264-.053-.498-.157-.703a1.21 1.21 0 0 0-.444-.484 1.247 1.247 0 0 0-.671-.177c-.252 0-.474.059-.664.177-.191.118-.341.28-.449.484-.11.205-.164.44-.164.703Zm-.881 0c0-.315.055-.602.163-.862.11-.264.261-.492.456-.685a1.99 1.99 0 0 1 .682-.443c.264-.107.55-.16.857-.16.312 0 .597.053.858.16a1.995 1.995 0 0 1 1.137 1.128c.109.26.164.547.164.862 0 .311-.055.601-.164.869a2.045 2.045 0 0 1-.449.691c-.191.197-.418.35-.682.46a2.27 2.27 0 0 1-.864.16c-.314 0-.604-.053-.869-.16a2.106 2.106 0 0 1-.682-.46 2.045 2.045 0 0 1-.449-.691 2.358 2.358 0 0 1-.158-.869Z"/></svg>