<svg xmlns="http://www.w3.org/2000/svg" width="86" height="16" fill="none"><g clip-path="url(#a)"><mask id="b" width="16" height="16" x="0" y="0" maskUnits="userSpaceOnUse" style="mask-type:luminance"><path fill="#fff" d="M15.355 0H0v15.355h15.355V0Z"/></mask><g fill="#D43228" mask="url(#b)"><path d="M6.554 15.082a6.746 6.746 0 0 1-.323-1.207l-1.226-.318v-1.671l1.226-.32c.07-.411.178-.815.323-1.207l-.902-.888.835-1.446 1.222.339c.267-.321.563-.616.883-.883l-.339-1.223 1.448-.835.89.9a6.737 6.737 0 0 1 1.208-.322l.317-1.227h1.67l.32 1.227c.411.07.815.178 1.207.322l.042-.042V1.01A1.017 1.017 0 0 0 14.345 0h-7.28l.152.264-.641.632c.102.278.18.565.23.858l.871.227v1.186l-.872.228c-.05.293-.126.58-.23.86l.642.63-.593 1.03-.87-.238c-.19.228-.4.438-.628.628l.24.869-1.029.593-.63-.641a4.842 4.842 0 0 1-.86.228l-.226.871H1.434c-.075-.29-.15-.58-.227-.871a4.85 4.85 0 0 1-.86-.23L0 7.476v6.869a1.017 1.017 0 0 0 1.01 1.01h5.268l.276-.273Z"/><path d="M15.355 14.345v-5.98a4.974 4.974 0 0 0-6.624 6.99h5.614a1.017 1.017 0 0 0 1.01-1.01ZM0 1.01v4.463A3.537 3.537 0 0 0 4.452 0H1.01A1.017 1.017 0 0 0 0 1.01Z"/></g><path fill="#fff" d="m22.89 4.294-.555 4.849h-1.839L21.78.074l3.616 5.577L29.01.074l1.284 9.069h-1.84l-.554-4.85-2.505 4.048-2.505-4.047ZM32.813 9.143V7.65h4.356v1.493h-4.356Zm0-7.144V.506h4.356v1.493h-4.356Zm0 3.294V3.825h4.109v1.468h-4.109ZM31.678.506h1.703v8.637h-1.703V.506ZM40.327 4.824c0 .568.128 1.065.383 1.493.263.42.604.745 1.024.975.42.222.876.333 1.37.333.41 0 .777-.053 1.098-.16.32-.107.608-.251.863-.432.264-.181.49-.379.68-.592v1.986c-.355.28-.741.498-1.16.654-.412.156-.934.234-1.568.234-.658 0-1.27-.107-1.838-.32a4.323 4.323 0 0 1-1.469-.926 4.335 4.335 0 0 1-.962-1.419 4.84 4.84 0 0 1-.333-1.826c0-.666.11-1.27.333-1.813.23-.552.55-1.029.962-1.432.42-.403.91-.711 1.469-.925a5.172 5.172 0 0 1 1.838-.32c.633 0 1.156.077 1.567.234.42.156.806.374 1.16.653v1.987a3.69 3.69 0 0 0-.679-.592 3.267 3.267 0 0 0-.863-.432 3.467 3.467 0 0 0-1.099-.16 2.8 2.8 0 0 0-1.37.345 2.67 2.67 0 0 0-1.023.962c-.255.42-.383.917-.383 1.493ZM48.08 5.342V3.751h6.342v1.591H48.08ZM53.299.506h1.765v8.637h-1.765V.506Zm-5.8 0h1.765v8.637h-1.765V.506ZM58.12 7.18l.21-1.393h4.145l.21 1.394h-4.566Zm2.258-3.873L59.081 6.28l.037.395-1.135 2.468h-1.987L60.377 0l4.381 9.143H62.76l-1.11-2.394.024-.444-1.296-2.998ZM71.84.506h1.703v9.068l-6.145-5.786v5.355h-1.703V.074l6.146 5.787V.506ZM75.42.506h1.79v8.637h-1.79V.506ZM80.49 4.824c0 .568.127 1.065.382 1.493.263.42.605.745 1.024.975.42.222.876.333 1.37.333a3.47 3.47 0 0 0 1.098-.16c.321-.107.609-.251.864-.432.263-.181.49-.379.679-.592v1.986c-.354.28-.74.498-1.16.654-.412.156-.934.234-1.567.234-.659 0-1.271-.107-1.84-.32a4.322 4.322 0 0 1-1.467-.926 4.33 4.33 0 0 1-.963-1.419 4.835 4.835 0 0 1-.333-1.826c0-.666.11-1.27.333-1.813.23-.552.552-1.029.963-1.432.419-.403.909-.711 1.468-.925a5.175 5.175 0 0 1 1.839-.32c.633 0 1.155.077 1.567.234.42.156.806.374 1.16.653v1.987a3.697 3.697 0 0 0-.679-.592 3.273 3.273 0 0 0-.864-.432 3.47 3.47 0 0 0-1.098-.16c-.494 0-.95.115-1.37.345-.42.222-.76.543-1.024.962-.255.42-.382.917-.382 1.493ZM20.496 12.988h.488v2.419h-.488v-2.42Zm.297.418v-.418h.474c.19 0 .35.03.481.093.135.062.237.15.307.266.071.115.106.252.106.411a.783.783 0 0 1-.106.412.688.688 0 0 1-.307.266 1.122 1.122 0 0 1-.48.093h-.475v-.418h.474a.48.48 0 0 0 .307-.09c.075-.06.113-.147.113-.263 0-.117-.038-.205-.113-.262a.48.48 0 0 0-.307-.09h-.474ZM27.033 15.407v-.418h1.205v.418h-1.205Zm0-2.001v-.418h1.205v.418h-1.205Zm0 .923v-.412h1.136v.412h-1.136Zm-.314-1.341h.471v2.419h-.47v-2.42ZM33.424 14.049l-.154 1.358h-.508l.355-2.54 1 1.562 1-1.562.354 2.54h-.508l-.154-1.358-.692 1.133-.693-1.133ZM40.31 14.197c0 .155.032.292.095.412.064.12.151.214.263.283.111.069.241.104.389.104a.723.723 0 0 0 .389-.104.706.706 0 0 0 .26-.284.863.863 0 0 0 .095-.41.89.89 0 0 0-.092-.412.704.704 0 0 0-.652-.387.722.722 0 0 0-.389.104.728.728 0 0 0-.263.283.863.863 0 0 0-.095.411Zm-.516 0c0-.184.032-.352.096-.504a1.166 1.166 0 0 1 .665-.66c.155-.063.322-.094.502-.094.182 0 .35.031.502.094a1.166 1.166 0 0 1 .665.66c.064.152.096.32.096.504 0 .182-.032.352-.096.508a1.2 1.2 0 0 1-.662.674c-.152.062-.32.094-.505.094a1.35 1.35 0 0 1-.508-.094 1.2 1.2 0 0 1-.662-.674 1.378 1.378 0 0 1-.093-.508ZM47.037 14.342v-.445h1.754v.445h-1.754Zm1.444-1.354h.488v2.419h-.488v-2.42Zm-1.604 0h.488v2.419h-.488v-2.42ZM53.424 13.434v-.446h1.775v.446h-.645v1.973h-.488v-1.973h-.642ZM65.19 14.857l.058-.39h1.146l.058.39H65.19Zm.624-1.085-.357.833.01.11-.314.692h-.55l1.212-2.561 1.211 2.56h-.553l-.307-.67.007-.124-.359-.84ZM71.83 14.18v-.225h.386c.07 0 .132-.011.184-.034a.272.272 0 0 0 .164-.256.248.248 0 0 0-.096-.21.397.397 0 0 0-.252-.073h-.263v1.63h.314a.67.67 0 0 0 .222-.034.32.32 0 0 0 .212-.321.31.31 0 0 0-.126-.26.341.341 0 0 0-.137-.062.67.67 0 0 0-.17-.02h-.438v-.27h.482a1.4 1.4 0 0 1 .33.038.888.888 0 0 1 .287.121.577.577 0 0 1 .273.515c0 .16-.037.29-.112.39a.634.634 0 0 1-.31.225c-.135.049-.291.073-.468.073h-.847v-2.42h.795c.16 0 .3.024.42.07.12.044.215.11.283.2a.55.55 0 0 1 .103.342.496.496 0 0 1-.103.315.637.637 0 0 1-.283.2c-.12.044-.26.066-.42.066h-.43ZM77.456 13.434v-.446h1.775v.446h-.645v1.973h-.488v-1.973h-.642ZM83.897 14.197a.86.86 0 0 0 .096.412c.063.12.15.214.262.283.112.069.242.104.39.104a.724.724 0 0 0 .389-.104.705.705 0 0 0 .258-.284.858.858 0 0 0 .096-.41.892.892 0 0 0-.092-.412.708.708 0 0 0-.26-.283.73.73 0 0 0-.392-.104.722.722 0 0 0-.389.104.726.726 0 0 0-.262.283.86.86 0 0 0-.096.411Zm-.515 0c0-.184.032-.352.095-.504.064-.155.153-.288.267-.401.113-.113.246-.2.399-.26.154-.062.322-.093.501-.093.182 0 .35.031.502.094a1.166 1.166 0 0 1 .665.66c.064.152.096.32.096.504 0 .182-.032.352-.096.508a1.2 1.2 0 0 1-.662.674 1.326 1.326 0 0 1-.505.094c-.184 0-.354-.032-.508-.094a1.2 1.2 0 0 1-.662-.674 1.384 1.384 0 0 1-.092-.508Z"/></g><defs><clipPath id="a"><path fill="#fff" d="M0 0h86v15.891H0z"/></clipPath></defs></svg>